<svg width="67" height="74" viewBox="0 0 67 74" fill="none" xmlns="http://www.w3.org/2000/svg">
<path d="M50.2137 0C42.2738 17.5168 37.8869 26.2521 33.4637 26.2521C29.0406 26.2521 24.6537 17.5168 16.75 0C24.6537 17.5168 28.4242 26.7605 26.2127 31.6134C24.0011 36.4663 15.8436 36.9748 0 36.9748C16.4237 36.9748 24.5812 37.4832 26.4302 42.8445C28.1705 47.8361 24.3999 57.0336 16.75 73.9495C24.6899 56.4327 29.0768 47.6974 33.5 47.6974C37.9232 47.6974 42.3101 56.4327 50.25 73.9495C41.8387 55.3235 38.1407 46.0798 41.2587 41.4579C44.0141 37.3907 52.1353 36.9748 67 36.9748C50.25 36.9748 42.0925 36.4201 40.461 30.7353C38.9746 25.6512 42.7451 16.5 50.2137 0Z" fill="white"/>
</svg>
